<svg width="16" height="16" viewBox="0 0 16 16" fill="none" xmlns="http://www.w3.org/2000/svg">
<path fill-rule="evenodd" clip-rule="evenodd" d="M1.72402 7.7239C1.97407 7.47385 2.31321 7.33337 2.66683 7.33337H13.3335C13.6871 7.33337 14.0263 7.47385 14.2763 7.7239C14.5264 7.97395 14.6668 8.31309 14.6668 8.66671V10.6667C14.6668 11.5508 14.3156 12.3986 13.6905 13.0237C13.0654 13.6488 12.2176 14 11.3335 14H4.66683C3.78277 14 2.93493 13.6489 2.30981 13.0237C1.68469 12.3986 1.3335 11.5508 1.3335 10.6667V8.66671C1.3335 8.31309 1.47397 7.97395 1.72402 7.7239ZM13.3335 8.66671L2.66683 8.66671V10.6667C2.66683 11.1971 2.87754 11.7058 3.25262 12.0809C3.62769 12.456 4.1364 12.6667 4.66683 12.6667H11.3335C11.8639 12.6667 12.3726 12.456 12.7477 12.0809C13.1228 11.7058 13.3335 11.1971 13.3335 10.6667V8.66671Z" fill="#3452E9"/>
<path fill-rule="evenodd" clip-rule="evenodd" d="M5.3335 2.66671C5.15668 2.66671 4.98712 2.73695 4.86209 2.86197C4.73707 2.98699 4.66683 3.15656 4.66683 3.33337V8.00004C4.66683 8.36823 4.36835 8.66671 4.00016 8.66671C3.63197 8.66671 3.3335 8.36823 3.3335 8.00004V3.33337C3.3335 2.80294 3.54421 2.29423 3.91928 1.91916C4.29436 1.54409 4.80306 1.33337 5.3335 1.33337H7.3335C7.70169 1.33337 8.00016 1.63185 8.00016 2.00004V3.50004C8.00016 3.86823 7.70169 4.16671 7.3335 4.16671C6.96531 4.16671 6.66683 3.86823 6.66683 3.50004V2.66671H5.3335Z" fill="#3452E9"/>
<path fill-rule="evenodd" clip-rule="evenodd" d="M3.7032 12.4453C4.00956 12.6495 4.09234 13.0634 3.8881 13.3698L3.22144 14.3698C3.0172 14.6761 2.60329 14.7589 2.29694 14.5547C1.99058 14.3505 1.9078 13.9365 2.11204 13.6302L2.7787 12.6302C2.98294 12.3238 3.39685 12.2411 3.7032 12.4453Z" fill="#3452E9"/>
<path fill-rule="evenodd" clip-rule="evenodd" d="M12.2969 12.4453C12.6033 12.2411 13.0172 12.3238 13.2214 12.6302L13.8881 13.6302C14.0923 13.9365 14.0096 14.3505 13.7032 14.5547C13.3969 14.7589 12.9829 14.6761 12.7787 14.3698L12.112 13.3698C11.9078 13.0634 11.9906 12.6495 12.2969 12.4453Z" fill="#3452E9"/>
</svg>
