<svg width="16" height="16" viewBox="0 0 16 16" fill="none" xmlns="http://www.w3.org/2000/svg">
<path fill-rule="evenodd" clip-rule="evenodd" d="M2.00016 4C2.36835 4 2.66683 4.29848 2.66683 4.66667V8.66667H6.66683V5.33333C6.66683 4.96514 6.96531 4.66667 7.3335 4.66667H12.6668C13.1973 4.66667 13.706 4.87738 14.081 5.25245C14.4561 5.62753 14.6668 6.13623 14.6668 6.66667V12C14.6668 12.3682 14.3684 12.6667 14.0002 12.6667C13.632 12.6667 13.3335 12.3682 13.3335 12V10H2.66683V12C2.66683 12.3682 2.36835 12.6667 2.00016 12.6667C1.63197 12.6667 1.3335 12.3682 1.3335 12V4.66667C1.3335 4.29848 1.63197 4 2.00016 4ZM8.00016 8.66667H13.3335V6.66667C13.3335 6.48986 13.2633 6.32029 13.1382 6.19526C13.0132 6.07024 12.8436 6 12.6668 6H8.00016V8.66667Z" fill="#3452E9"/>
<path fill-rule="evenodd" clip-rule="evenodd" d="M3.72402 5.7239C3.97407 5.47385 4.31321 5.33337 4.66683 5.33337C5.02045 5.33337 5.35959 5.47385 5.60964 5.7239C5.85969 5.97395 6.00016 6.31308 6.00016 6.66671C6.00016 7.02033 5.85969 7.35947 5.60964 7.60952C5.35959 7.85956 5.02045 8.00004 4.66683 8.00004C4.31321 8.00004 3.97407 7.85956 3.72402 7.60952C3.47397 7.35947 3.3335 7.02033 3.3335 6.66671C3.3335 6.31308 3.47397 5.97395 3.72402 5.7239Z" fill="#3452E9"/>
</svg>
