<svg width="24" height="28" viewBox="0 0 24 28" fill="none" xmlns="http://www.w3.org/2000/svg">
<path d="M2.25024 18.2158L21.7502 18.2158C22.1645 18.2158 22.5002 17.8381 22.5002 17.3721V5.55957C22.5002 5.09358 22.1645 4.71582 21.7502 4.71582L2.25024 4.71582C1.83603 4.71582 1.50024 5.09358 1.50024 5.55957V17.3721C1.50024 17.8381 1.83603 18.2158 2.25024 18.2158Z" stroke="#37424D" stroke-width="1.5" stroke-linejoin="round"/>
<path d="M4.50024 23.2773H19.5002M3.00024 20.7461H21.0002H3.00024Z" stroke="#37424D" stroke-width="1.5" stroke-linecap="round" stroke-linejoin="round"/>
<path d="M12 15.6855C14.0711 15.6855 15.75 13.7967 15.75 11.4668C15.75 9.13685 14.0711 7.24805 12 7.24805C9.92893 7.24805 8.25 9.13685 8.25 11.4668C8.25 13.7967 9.92893 15.6855 12 15.6855Z" stroke="#37424D" stroke-width="1.5" stroke-linecap="round" stroke-linejoin="round"/>
<path d="M22.5 8.93652C21.5054 8.93652 20.5516 8.49205 19.8484 7.70088C19.1451 6.90971 18.75 5.83666 18.75 4.71777M1.5 8.93652C1.99246 8.93652 2.48009 8.8274 2.93506 8.61539C3.39003 8.40338 3.80343 8.09263 4.15165 7.70088C4.49987 7.30913 4.77609 6.84406 4.96455 6.33222C5.153 5.82038 5.25 5.27179 5.25 4.71777M22.5 13.999C21.5054 13.999 20.5516 14.4435 19.8484 15.2347C19.1451 16.0258 18.75 17.0989 18.75 18.2178M1.5 13.999C1.99246 13.999 2.48009 14.1081 2.93506 14.3202C3.39003 14.5322 3.80343 14.8429 4.15165 15.2347C4.49987 15.6264 4.77609 16.0915 4.96455 16.6033C5.153 17.1152 5.25 17.6638 5.25 18.2178" stroke="#37424D" stroke-width="1.5" stroke-linecap="round" stroke-linejoin="round"/>
</svg>
