<svg width="27" height="24" viewBox="0 0 27 24" fill="none" xmlns="http://www.w3.org/2000/svg">
<path d="M24 12.7627L14 22.6667L3.99999 12.7627C3.3404 12.1208 2.82085 11.3493 2.47406 10.4968C2.12727 9.64433 1.96074 8.72926 1.98498 7.80924C2.00921 6.88921 2.22368 5.98417 2.61487 5.15111C3.00606 4.31804 3.56551 3.575 4.25798 2.96876C4.95044 2.36253 5.76093 1.90624 6.63841 1.62863C7.51588 1.35102 8.44134 1.2581 9.35649 1.35573C10.2716 1.45335 11.1567 1.7394 11.9558 2.19587C12.755 2.65233 13.451 3.26933 14 4.00799C14.5514 3.27469 15.2482 2.66309 16.0468 2.21146C16.8454 1.75984 17.7287 1.47792 18.6412 1.38335C19.5538 1.28878 20.4761 1.38359 21.3504 1.66185C22.2246 1.94011 23.032 2.39582 23.7221 3.00048C24.4121 3.60513 24.9699 4.3457 25.3606 5.17585C25.7512 6.00599 25.9663 6.90784 25.9924 7.82494C26.0185 8.74204 25.855 9.65465 25.5122 10.5057C25.1693 11.3567 24.6545 12.1278 24 12.7707" stroke="black" stroke-width="2" stroke-linecap="round" stroke-linejoin="round"/>
</svg>
