<svg width="29" height="28" viewBox="0 0 29 28" fill="none" xmlns="http://www.w3.org/2000/svg">
<g id="system/arrows/log-in">
<path id="Vector" d="M10.875 9.77856V7.66919C10.875 7.10975 11.1137 6.57322 11.5386 6.17764C11.9635 5.78205 12.5397 5.55981 13.1406 5.55981H22.2031C22.804 5.55981 23.3803 5.78205 23.8052 6.17764C24.2301 6.57322 24.4687 7.10975 24.4687 7.66919V20.3254C24.4687 20.8849 24.2301 21.4214 23.8052 21.817C23.3803 22.2126 22.804 22.4348 22.2031 22.4348H13.5937C12.3426 22.4348 10.875 21.4903 10.875 20.3254V18.2161" stroke="#37424D" stroke-width="1.5" stroke-linecap="round" stroke-linejoin="round"/>
<path id="Vector_2" d="M16.3127 18.2161L20.844 13.9973L16.3127 9.77856M4.53149 13.9973H19.9377" stroke="#37424D" stroke-width="1.5" stroke-linecap="round" stroke-linejoin="round"/>
</g>
</svg>
