<svg width="27" height="28" viewBox="0 0 27 28" fill="none" xmlns="http://www.w3.org/2000/svg">
<g clip-path="url(#clip0_3_7250)">
<path d="M20.25 5H6.75C5.50736 5 4.5 6.00736 4.5 7.25V20.75C4.5 21.9926 5.50736 23 6.75 23H20.25C21.4926 23 22.5 21.9926 22.5 20.75V7.25C22.5 6.00736 21.4926 5 20.25 5Z" stroke="#21272A" stroke-width="2" stroke-linecap="round" stroke-linejoin="round"/>
<path d="M10.125 18.5V9.5H14.625C15.2217 9.5 15.794 9.73705 16.216 10.159C16.6379 10.581 16.875 11.1533 16.875 11.75C16.875 12.3467 16.6379 12.919 16.216 13.341C15.794 13.7629 15.2217 14 14.625 14H10.125" stroke="#21272A" stroke-width="2" stroke-linecap="round" stroke-linejoin="round"/>
</g>
<defs>
<clipPath id="clip0_3_7250">
<rect width="27" height="27" fill="white" transform="translate(0 0.5)"/>
</clipPath>
</defs>
</svg>
