<svg width="20" height="21" viewBox="0 0 20 21" fill="none" xmlns="http://www.w3.org/2000/svg">
<path d="M18.1056 6.47344C17.9628 6.40791 17.8107 6.37451 17.6572 6.375H17.6411C16.8307 6.38906 15.9219 7.27453 15.445 8.61375C14.8732 10.2159 15.1364 11.8552 16.0372 12.2766C16.1799 12.3421 16.3319 12.3755 16.4852 12.375C17.2996 12.375 18.2209 11.4844 18.7018 10.1363C19.2696 8.53406 19.0024 6.89484 18.1056 6.47344V6.47344ZM12.8767 12.7256C11.7598 10.5633 11.2776 9.75 9.99995 9.75C8.72227 9.75 8.23611 10.5684 7.11914 12.7256C6.16289 14.5706 4.23029 14.7244 3.74815 16.2914C3.65033 16.5784 3.60121 16.8849 3.6035 17.1937C3.6035 18.4683 4.43922 19.5 5.46779 19.5C6.74548 19.5 8.48521 18.3098 10.004 18.3098C11.5227 18.3098 13.2544 19.5 14.5321 19.5C15.5607 19.5 16.3924 18.4687 16.3924 17.1937C16.3933 16.8846 16.3428 16.5781 16.2437 16.2914C15.7616 14.7187 13.833 14.5706 12.8767 12.7256ZM7.449 7.6875C7.5028 7.68755 7.55653 7.68285 7.60972 7.67344C8.54227 7.51547 9.12446 6.00797 8.91312 4.30547C8.71423 2.70047 7.87932 1.5 7.00624 1.5C6.95244 1.49995 6.89871 1.50465 6.84552 1.51406C5.91298 1.67203 5.33079 3.17953 5.54213 4.88203C5.74101 6.48234 6.57592 7.6875 7.449 7.6875ZM14.4566 4.88203C14.6679 3.17953 14.0857 1.67203 13.1532 1.51406C13.1 1.50465 13.0463 1.49995 12.9925 1.5C12.1194 1.5 11.2861 2.70047 11.0868 4.30547C10.8754 6.00797 11.4576 7.51547 12.3902 7.67344C12.4434 7.68285 12.4971 7.68755 12.5509 7.6875C13.424 7.6875 14.2589 6.48234 14.4566 4.88203V4.88203ZM3.96391 12.2766C4.86351 11.8547 5.12628 10.2141 4.55534 8.61375C4.0748 7.26563 3.15431 6.375 2.34109 6.375C2.18777 6.37451 2.03576 6.40791 1.8931 6.47344C0.993498 6.89531 0.730729 8.53594 1.30167 10.1363C1.78221 11.4844 2.7027 12.375 3.51592 12.375C3.66923 12.3755 3.82125 12.3421 3.96391 12.2766V12.2766Z" stroke="#3452E9" stroke-width="1.5" stroke-miterlimit="10"/>
</svg>
