<svg width="38" height="38" viewBox="0 0 38 38" fill="none" xmlns="http://www.w3.org/2000/svg">
<path d="M18.7789 3.47991C10.2938 3.36563 3.36678 10.273 3.48138 18.734C3.59454 26.8486 10.2206 33.4558 18.3582 33.5686C26.8448 33.6843 33.7704 26.777 33.6543 18.316C33.5426 10.2 26.9166 3.59275 18.7789 3.47991ZM27.9487 27.1495C27.9198 27.1806 27.8844 27.2051 27.845 27.221C27.8056 27.237 27.7631 27.2442 27.7206 27.242C27.6781 27.2397 27.6366 27.2282 27.5991 27.2083C27.5615 27.1883 27.5289 27.1603 27.5034 27.1263C26.8546 26.2799 26.0601 25.5552 25.1569 24.9861C23.3101 23.8043 20.9702 23.1533 18.5686 23.1533C16.1669 23.1533 13.827 23.8043 11.9803 24.9861C11.0771 25.555 10.2826 26.2794 9.63376 27.1256C9.60827 27.1596 9.5756 27.1875 9.53805 27.2075C9.50051 27.2275 9.45902 27.239 9.41652 27.2412C9.37402 27.2434 9.33155 27.2363 9.29213 27.2203C9.25271 27.2043 9.21729 27.1799 9.1884 27.1487C7.06 24.8576 5.85435 21.8639 5.80249 18.7413C5.68426 11.703 11.4761 5.81179 18.5374 5.79443C25.5986 5.77707 31.3346 11.4946 31.3346 18.5243C31.3371 21.7222 30.1277 24.803 27.9487 27.1495Z" fill="#37424D"/>
<path d="M18.5687 10.4194C17.1384 10.4194 15.8451 10.9539 14.9261 11.9253C14.007 12.8967 13.5479 14.2398 13.6516 15.6813C13.862 18.5202 16.0677 20.8348 18.5687 20.8348C21.0697 20.8348 23.2712 18.5202 23.4859 15.6821C23.5932 14.2543 23.1377 12.9235 22.2034 11.934C21.2808 10.9576 19.9897 10.4194 18.5687 10.4194Z" fill="#37424D"/>
</svg>
