<svg width="32" height="33" viewBox="0 0 32 33" fill="none" xmlns="http://www.w3.org/2000/svg">
<g clip-path="url(#clip0_3_7615)">
<path d="M13.7667 6.256C14.3347 3.91467 17.6653 3.91467 18.2333 6.256C18.3186 6.60773 18.4856 6.93437 18.7209 7.20933C18.9563 7.48429 19.2532 7.69981 19.5875 7.83833C19.9219 7.97685 20.2842 8.03447 20.645 8.00649C21.0059 7.97852 21.355 7.86574 21.664 7.67733C23.7213 6.424 26.0773 8.77867 24.824 10.8373C24.6359 11.1462 24.5233 11.4951 24.4954 11.8557C24.4674 12.2163 24.525 12.5784 24.6634 12.9125C24.8017 13.2467 25.017 13.5434 25.2916 13.7787C25.5663 14.014 25.8926 14.1812 26.244 14.2667C28.5853 14.8347 28.5853 18.1653 26.244 18.7333C25.8923 18.8186 25.5656 18.9856 25.2907 19.2209C25.0157 19.4563 24.8002 19.7532 24.6617 20.0875C24.5232 20.4219 24.4655 20.7842 24.4935 21.145C24.5215 21.5059 24.6343 21.855 24.8227 22.164C26.076 24.2213 23.7213 26.5773 21.6627 25.324C21.3538 25.1359 21.0049 25.0233 20.6443 24.9954C20.2837 24.9674 19.9216 25.025 19.5875 25.1634C19.2533 25.3017 18.9566 25.517 18.7213 25.7916C18.486 26.0663 18.3188 26.3926 18.2333 26.744C17.6653 29.0853 14.3347 29.0853 13.7667 26.744C13.6814 26.3923 13.5144 26.0656 13.2791 25.7907C13.0437 25.5157 12.7468 25.3002 12.4125 25.1617C12.0781 25.0232 11.7158 24.9655 11.355 24.9935C10.9941 25.0215 10.645 25.1343 10.336 25.3227C8.27867 26.576 5.92267 24.2213 7.176 22.1627C7.36414 21.8538 7.47673 21.5049 7.50465 21.1443C7.53256 20.7837 7.47499 20.4216 7.33663 20.0875C7.19827 19.7533 6.98301 19.4566 6.70836 19.2213C6.43371 18.986 6.10742 18.8188 5.756 18.7333C3.41467 18.1653 3.41467 14.8347 5.756 14.2667C6.10773 14.1814 6.43437 14.0144 6.70933 13.7791C6.98429 13.5437 7.19981 13.2468 7.33833 12.9125C7.47685 12.5781 7.53447 12.2158 7.50649 11.855C7.47852 11.4941 7.36574 11.145 7.17733 10.836C5.924 8.77867 8.27867 6.42267 10.3373 7.676C11.6707 8.48667 13.3987 7.76933 13.7667 6.256Z" stroke="black" stroke-width="2" stroke-linecap="round" stroke-linejoin="round"/>
<path d="M12 16.5C12 17.5609 12.4214 18.5783 13.1716 19.3284C13.9217 20.0786 14.9391 20.5 16 20.5C17.0609 20.5 18.0783 20.0786 18.8284 19.3284C19.5786 18.5783 20 17.5609 20 16.5C20 15.4391 19.5786 14.4217 18.8284 13.6716C18.0783 12.9214 17.0609 12.5 16 12.5C14.9391 12.5 13.9217 12.9214 13.1716 13.6716C12.4214 14.4217 12 15.4391 12 16.5Z" stroke="black" stroke-width="2" stroke-linecap="round" stroke-linejoin="round"/>
</g>
<defs>
<clipPath id="clip0_3_7615">
<rect width="32" height="32" fill="white" transform="translate(0 0.5)"/>
</clipPath>
</defs>
</svg>
