<svg width="16" height="16" viewBox="0 0 16 16" fill="none" xmlns="http://www.w3.org/2000/svg">
<path fill-rule="evenodd" clip-rule="evenodd" d="M2.75016 8.66671C2.71426 8.66671 2.66683 8.69957 2.66683 8.76204V12.6667L13.2502 12.6667C13.2861 12.6667 13.3335 12.6338 13.3335 12.5714V8.76204C13.3335 8.69957 13.2861 8.66671 13.2502 8.66671H2.75016ZM1.3335 8.76204C1.3335 7.98318 1.95806 7.33337 2.75016 7.33337H13.2502C14.0423 7.33337 14.6668 7.98318 14.6668 8.76204V12.5714C14.6668 13.3502 14.0423 14 13.2502 14H2.66683C2.31321 14 1.97407 13.8596 1.72402 13.6095C1.47397 13.3595 1.3335 13.0203 1.3335 12.6667V8.76204Z" fill="#3452E9"/>
<path fill-rule="evenodd" clip-rule="evenodd" d="M6.00016 7.33337C6.36835 7.33337 6.66683 7.63185 6.66683 8.00004V9.33337C6.66683 9.70156 6.36835 10 6.00016 10C5.63197 10 5.3335 9.70156 5.3335 9.33337V8.00004C5.3335 7.63185 5.63197 7.33337 6.00016 7.33337Z" fill="#3452E9"/>
<path fill-rule="evenodd" clip-rule="evenodd" d="M4.00016 7.33337C4.36835 7.33337 4.66683 7.63185 4.66683 8.00004V10C4.66683 10.3682 4.36835 10.6667 4.00016 10.6667C3.63197 10.6667 3.3335 10.3682 3.3335 10V8.00004C3.3335 7.63185 3.63197 7.33337 4.00016 7.33337Z" fill="#3452E9"/>
<path fill-rule="evenodd" clip-rule="evenodd" d="M8.00016 7.33337C8.36835 7.33337 8.66683 7.63185 8.66683 8.00004V10C8.66683 10.3682 8.36835 10.6667 8.00016 10.6667C7.63197 10.6667 7.3335 10.3682 7.3335 10V8.00004C7.3335 7.63185 7.63197 7.33337 8.00016 7.33337Z" fill="#3452E9"/>
<path fill-rule="evenodd" clip-rule="evenodd" d="M12.0002 7.33337C12.3684 7.33337 12.6668 7.63185 12.6668 8.00004V10C12.6668 10.3682 12.3684 10.6667 12.0002 10.6667C11.632 10.6667 11.3335 10.3682 11.3335 10V8.00004C11.3335 7.63185 11.632 7.33337 12.0002 7.33337Z" fill="#3452E9"/>
<path fill-rule="evenodd" clip-rule="evenodd" d="M10.0002 7.33337C10.3684 7.33337 10.6668 7.63185 10.6668 8.00004V9.33337C10.6668 9.70156 10.3684 10 10.0002 10C9.63197 10 9.3335 9.70156 9.3335 9.33337V8.00004C9.3335 7.63185 9.63197 7.33337 10.0002 7.33337Z" fill="#3452E9"/>
<path fill-rule="evenodd" clip-rule="evenodd" d="M2.00016 1.33337C2.36835 1.33337 2.66683 1.63185 2.66683 2.00004V4.66671C2.66683 5.0349 2.36835 5.33337 2.00016 5.33337C1.63197 5.33337 1.3335 5.0349 1.3335 4.66671V2.00004C1.3335 1.63185 1.63197 1.33337 2.00016 1.33337Z" fill="#3452E9"/>
<path fill-rule="evenodd" clip-rule="evenodd" d="M1.3335 3.33329C1.3335 2.9651 1.63197 2.66663 2.00016 2.66663H14.0002C14.3684 2.66663 14.6668 2.9651 14.6668 3.33329C14.6668 3.70148 14.3684 3.99996 14.0002 3.99996H2.00016C1.63197 3.99996 1.3335 3.70148 1.3335 3.33329Z" fill="#3452E9"/>
<path fill-rule="evenodd" clip-rule="evenodd" d="M14.0002 1.33337C14.3684 1.33337 14.6668 1.63185 14.6668 2.00004V4.66671C14.6668 5.0349 14.3684 5.33337 14.0002 5.33337C13.632 5.33337 13.3335 5.0349 13.3335 4.66671V2.00004C13.3335 1.63185 13.632 1.33337 14.0002 1.33337Z" fill="#3452E9"/>
</svg>
