<svg width="24" height="25" viewBox="0 0 24 25" fill="none" xmlns="http://www.w3.org/2000/svg">
<g id="icon / iconoir / washing-machine">
<path id="Vector" d="M20.9999 4.49999L21 20.5C21 21.6046 20.1046 22.5 19 22.5H5C3.89543 22.5 3 21.6046 3 20.5V4.5C3 3.39543 3.89543 2.5 5 2.5H18.9999C20.1045 2.5 20.9999 3.39543 20.9999 4.49999Z" stroke="#21272A" stroke-width="1.5" stroke-linecap="round" stroke-linejoin="round"/>
<path id="Vector_2" d="M18 5.50989L18.01 5.49878" stroke="#21272A" stroke-width="1.5" stroke-linecap="round" stroke-linejoin="round"/>
<path id="Vector_3" d="M12 19.5C15.3137 19.5 18 16.8137 18 13.5C18 10.1863 15.3137 7.5 12 7.5C8.68629 7.5 6 10.1863 6 13.5C6 16.8137 8.68629 19.5 12 19.5Z" stroke="#21272A" stroke-width="1.5" stroke-linecap="round" stroke-linejoin="round"/>
<path id="Vector_4" d="M12 16.5C10.3431 16.5 9 15.1569 9 13.5" stroke="#21272A" stroke-width="1.5" stroke-linecap="round" stroke-linejoin="round"/>
<path id="Vector_5" d="M20.9999 4.49999L21 20.5C21 21.6046 20.1046 22.5 19 22.5H5C3.89543 22.5 3 21.6046 3 20.5V4.5C3 3.39543 3.89543 2.5 5 2.5H18.9999C20.1045 2.5 20.9999 3.39543 20.9999 4.49999Z" stroke="#21272A" stroke-width="1.5" stroke-linecap="round" stroke-linejoin="round"/>
<path id="Vector_6" d="M18 5.50989L18.01 5.49878" stroke="#21272A" stroke-width="1.5" stroke-linecap="round" stroke-linejoin="round"/>
<path id="Vector_7" d="M12 19.5C15.3137 19.5 18 16.8137 18 13.5C18 10.1863 15.3137 7.5 12 7.5C8.68629 7.5 6 10.1863 6 13.5C6 16.8137 8.68629 19.5 12 19.5Z" stroke="#21272A" stroke-width="1.5" stroke-linecap="round" stroke-linejoin="round"/>
<path id="Vector_8" d="M12 16.5C10.3431 16.5 9 15.1569 9 13.5" stroke="#21272A" stroke-width="1.5" stroke-linecap="round" stroke-linejoin="round"/>
</g>
</svg>
