<svg width="18" height="13" viewBox="0 0 18 13" fill="none" xmlns="http://www.w3.org/2000/svg">
<path d="M0 12.623V7.88379C0 5.6377 0.531576 3.86328 1.59473 2.56055C2.67285 1.25781 4.23763 0.404297 6.28906 0V2.33594C4.76172 2.8151 3.736 3.63867 3.21191 4.80664C2.94238 5.42057 2.83008 6.05697 2.875 6.71582H6.40137V12.623H0ZM16.9355 2.33594C15.4232 2.80013 14.4049 3.63867 13.8809 4.85156C13.5814 5.49544 13.4616 6.11686 13.5215 6.71582H17.0479V12.623H10.6465V7.88379C10.6465 5.60775 11.193 3.82585 12.2861 2.53809C13.3942 1.25033 14.944 0.404297 16.9355 0V2.33594Z" fill="#212121"/>
</svg>
