<svg width="152" height="24" viewBox="0 0 152 24" fill="none" xmlns="http://www.w3.org/2000/svg">
<g clip-path="url(#clip0_3_6892)">
<path d="M11.9998 17.75L5.82784 20.995L7.00684 14.122L2.00684 9.25495L8.90684 8.25495L11.9928 2.00195L15.0788 8.25495L21.9788 9.25495L16.9788 14.122L18.1578 20.995L11.9998 17.75Z" fill="#FFCC47" stroke="#FFCC47" stroke-width="2" stroke-linecap="round" stroke-linejoin="round"/>
</g>
<g clip-path="url(#clip1_3_6892)">
<path d="M43.9998 17.75L37.8278 20.995L39.0068 14.122L34.0068 9.25495L40.9068 8.25495L43.9928 2.00195L47.0788 8.25495L53.9788 9.25495L48.9788 14.122L50.1578 20.995L43.9998 17.75Z" fill="#FFCC47" stroke="#FFCC47" stroke-width="2" stroke-linecap="round" stroke-linejoin="round"/>
</g>
<g clip-path="url(#clip2_3_6892)">
<path d="M75.9998 17.75L69.8278 20.995L71.0068 14.122L66.0068 9.25495L72.9068 8.25495L75.9928 2.00195L79.0788 8.25495L85.9788 9.25495L80.9788 14.122L82.1578 20.995L75.9998 17.75Z" fill="#FFCC47" stroke="#FFCC47" stroke-width="2" stroke-linecap="round" stroke-linejoin="round"/>
</g>
<g clip-path="url(#clip3_3_6892)">
<path d="M108 17.75L101.828 20.995L103.007 14.122L98.0068 9.25495L104.907 8.25495L107.993 2.00195L111.079 8.25495L117.979 9.25495L112.979 14.122L114.158 20.995L108 17.75Z" fill="#FFCC47" stroke="#FFCC47" stroke-width="2" stroke-linecap="round" stroke-linejoin="round"/>
</g>
<g clip-path="url(#clip4_3_6892)">
<path d="M140 17.75L133.828 20.995L135.007 14.122L130.007 9.25495L136.907 8.25495L139.993 2.00195L143.079 8.25495L149.979 9.25495L144.979 14.122L146.158 20.995L140 17.75Z" fill="#FFCC47" stroke="#FFCC47" stroke-width="2" stroke-linecap="round" stroke-linejoin="round"/>
</g>
<defs>
<clipPath id="clip0_3_6892">
<rect width="24" height="24" fill="white"/>
</clipPath>
<clipPath id="clip1_3_6892">
<rect width="24" height="24" fill="white" transform="translate(32)"/>
</clipPath>
<clipPath id="clip2_3_6892">
<rect width="24" height="24" fill="white" transform="translate(64)"/>
</clipPath>
<clipPath id="clip3_3_6892">
<rect width="24" height="24" fill="white" transform="translate(96)"/>
</clipPath>
<clipPath id="clip4_3_6892">
<rect width="24" height="24" fill="white" transform="translate(128)"/>
</clipPath>
</defs>
</svg>
